<?xml version="1.0" encoding="UTF-8" standalone="no"?>
<!DOCTYPE svg PUBLIC "-//W3C//DTD SVG 1.1//EN" "http://www.w3.org/Graphics/SVG/1.1/DTD/svg11.dtd">
<svg width="100%" height="100%" viewBox="0 0 741 737" version="1.1" xmlns="http://www.w3.org/2000/svg" xmlns:xlink="http://www.w3.org/1999/xlink" xml:space="preserve" xmlns:serif="http://www.serif.com/" style="fill-rule:evenodd;clip-rule:evenodd;stroke-linejoin:round;stroke-miterlimit:2;">
    <g transform="matrix(1,0,0,1,-25.1838,-39.5579)">
        <path d="M661.891,143.875C596.182,77.517 497.48,39.558 404.094,39.558C305.222,39.558 199.124,74.276 128.762,143.875C62.483,209.434 25.184,307.07 25.184,400.203C25.184,493.589 73.152,602.292 139.511,668C205.219,734.358 310.708,776.033 404.094,775.897C501.843,775.756 607.653,727.644 676.328,643.106C731.255,575.492 764.979,485.527 765.521,400.203C766.116,306.819 728.249,209.583 661.891,143.875ZM100,400.203C99.989,373.652 103.509,347.217 110.469,321.594C121.938,346.281 138.594,367.609 149.922,392.938C164.563,425.5 203.875,416.469 221.234,445C236.641,470.328 220.188,502.359 231.719,528.859C240.094,548.094 259.844,552.297 273.469,566.359C287.391,580.547 287.094,599.984 289.219,618.484C291.617,640.221 295.506,661.766 300.859,682.969C300.859,683.125 300.859,683.297 300.984,683.453C184.063,642.391 100,530.938 100,400.203ZM400,700.203C383.246,700.198 366.522,698.797 350,696.016C350.172,691.781 350.25,687.828 350.672,685.078C354.469,660.234 366.906,635.938 383.688,617.344C400.266,599 422.984,586.594 436.984,565.781C450.703,545.469 454.813,518.125 449.156,494.391C440.828,459.328 393.188,447.625 367.5,428.609C352.734,417.672 339.594,400.766 320.203,399.391C311.266,398.766 303.781,400.687 294.922,398.406C286.797,396.297 280.422,391.922 271.766,393.062C255.594,395.188 245.391,412.469 228.016,410.125C211.531,407.922 194.547,388.625 190.797,372.922C185.984,352.734 201.953,346.187 219.063,344.391C226.203,343.641 234.219,342.828 241.078,345.453C250.109,348.797 254.375,357.641 262.484,362.109C277.688,370.453 280.766,357.125 278.438,343.625C274.953,323.406 270.891,315.172 288.922,301.25C301.422,291.656 312.109,284.719 310.109,267.484C308.922,257.359 303.375,252.781 308.547,242.703C312.469,235.031 323.234,228.109 330.25,223.531C348.359,211.719 407.828,212.594 383.531,179.531C376.391,169.828 363.219,152.484 350.719,150.109C335.094,147.156 328.156,164.594 317.266,172.281C306.016,180.234 284.109,189.266 272.844,176.969C257.688,160.422 282.891,155 288.469,143.437C291.047,138.047 288.469,130.562 284.125,123.516C289.76,121.141 295.49,118.937 301.313,116.906C304.961,119.601 309.291,121.225 313.813,121.594C324.266,122.281 334.125,116.625 343.25,123.75C353.375,131.562 360.672,141.437 374.109,143.875C387.109,146.234 400.875,138.656 404.094,125.344C406.047,117.25 404.094,108.703 402.219,100.344C460.65,100.68 517.713,118.185 566.281,150.672C563.156,149.484 559.422,149.625 554.813,151.766C545.328,156.172 531.891,167.391 530.781,178.516C529.516,191.141 548.141,192.922 556.984,192.922C570.266,192.922 583.719,186.984 579.438,171.641C577.578,164.984 575.047,158.062 570.969,153.875C580.772,160.677 590.163,168.055 599.094,175.969C598.953,176.109 598.813,176.234 598.672,176.391C589.672,185.766 579.219,193.187 573.063,204.594C568.719,212.625 563.828,216.437 555.031,218.516C550.188,219.656 544.656,220.078 540.594,223.328C529.281,232.234 535.719,253.641 546.438,260.062C559.984,268.172 580.078,264.359 590.297,252.781C598.281,243.719 602.984,227.984 617.344,228C623.663,227.987 629.74,230.464 634.25,234.891C640.188,241.047 639.016,246.797 640.281,254.484C642.516,268.141 654.563,260.734 661.891,253.844C667.232,263.35 672.052,273.141 676.328,283.172C668.266,294.781 661.859,307.437 642.469,293.906C630.859,285.797 623.719,274.031 609.141,270.375C596.406,267.25 583.359,270.5 570.781,272.672C556.484,275.156 539.531,276.25 528.688,287.078C518.203,297.516 512.656,311.484 501.5,321.969C479.922,342.281 470.813,364.453 484.781,393.172C498.219,420.781 526.328,435.766 556.656,433.797C586.453,431.812 617.406,414.531 616.547,457.828C616.234,473.156 619.438,483.766 624.141,498C628.5,511.125 628.203,523.844 629.203,537.391C630.154,553.254 630.275,565.727 634.25,581.113C577.535,654.134 492.459,700.199 400,700.203Z" style="fill-rule:nonzero;"/>
    </g>
</svg>
