<svg width="520" height="90" viewBox="0 0 520 90" fill="none" xmlns="http://www.w3.org/2000/svg">
<path d="M74.8107 68L78.8757 47H81.3957L86.7807 61.145L92.1357 47H94.6557L98.7357 68H95.5557L92.8407 53.945L87.8157 67.205H85.7157L80.7057 53.945L77.9907 68H74.8107ZM116.592 47H120.237L127.872 68H124.572L123.117 64.01H113.712L112.272 68H108.957L116.592 47ZM114.867 60.89H121.962L118.407 51.14L114.867 60.89ZM138.092 68V47H145.037C146.487 47 147.847 47.275 149.117 47.825C150.387 48.365 151.502 49.12 152.462 50.09C153.422 51.05 154.172 52.165 154.712 53.435C155.262 54.695 155.537 56.05 155.537 57.5C155.537 58.95 155.262 60.31 154.712 61.58C154.172 62.84 153.422 63.955 152.462 64.925C151.502 65.885 150.387 66.64 149.117 67.19C147.847 67.73 146.487 68 145.037 68H138.092ZM141.212 64.88H145.037C146.057 64.88 147.007 64.69 147.887 64.31C148.777 63.93 149.562 63.4 150.242 62.72C150.932 62.04 151.467 61.255 151.847 60.365C152.227 59.475 152.417 58.52 152.417 57.5C152.417 56.48 152.227 55.525 151.847 54.635C151.467 53.745 150.932 52.96 150.242 52.28C149.562 51.6 148.777 51.07 147.887 50.69C147.007 50.31 146.057 50.12 145.037 50.12H141.212V64.88ZM165.455 68V47H178.49V50.12H168.575V55.19H176.555V58.31H168.575V64.88H178.49V68H165.455ZM203.874 68V47H206.994V68H203.874ZM218.248 68V47H221.623L231.268 62.36V47H234.388V68H231.013L221.368 52.64V68H218.248ZM269.35 68.39C267.89 68.39 266.53 68.11 265.27 67.55C264.02 66.98 262.925 66.195 261.985 65.195C261.055 64.185 260.325 63.02 259.795 61.7C259.275 60.38 259.015 58.975 259.015 57.485C259.015 55.915 259.295 54.47 259.855 53.15C260.415 51.83 261.18 50.685 262.15 49.715C263.12 48.735 264.225 47.975 265.465 47.435C266.715 46.895 268.025 46.625 269.395 46.625C270.945 46.625 272.435 46.985 273.865 47.705C275.295 48.425 276.54 49.505 277.6 50.945L274.81 52.46C274.09 51.56 273.25 50.88 272.29 50.42C271.34 49.96 270.365 49.73 269.365 49.73C268.395 49.73 267.475 49.93 266.605 50.33C265.735 50.72 264.965 51.27 264.295 51.98C263.625 52.68 263.095 53.505 262.705 54.455C262.325 55.395 262.135 56.42 262.135 57.53C262.135 58.6 262.32 59.605 262.69 60.545C263.07 61.485 263.59 62.31 264.25 63.02C264.92 63.72 265.69 64.27 266.56 64.67C267.44 65.07 268.38 65.27 269.38 65.27C270.12 65.27 270.83 65.15 271.51 64.91C272.19 64.67 272.82 64.33 273.4 63.89C273.99 63.44 274.505 62.905 274.945 62.285C275.385 61.665 275.735 60.975 275.995 60.215H271.54V57.455H279.655C279.675 58.955 279.415 60.365 278.875 61.685C278.345 63.005 277.605 64.17 276.655 65.18C275.715 66.18 274.62 66.965 273.37 67.535C272.12 68.105 270.78 68.39 269.35 68.39ZM289.85 68V47H302.885V50.12H292.97V55.19H300.95V58.31H292.97V64.88H302.885V68H289.85ZM313.404 68V47H321.129C322.269 47 323.294 47.28 324.204 47.84C325.114 48.4 325.834 49.155 326.364 50.105C326.904 51.045 327.174 52.095 327.174 53.255C327.174 54.235 326.989 55.13 326.619 55.94C326.259 56.75 325.749 57.44 325.089 58.01C324.439 58.58 323.694 58.99 322.854 59.24L327.924 68H324.309L319.389 59.525H316.524V68H313.404ZM316.524 56.405H320.799C321.399 56.405 321.944 56.255 322.434 55.955C322.934 55.655 323.329 55.255 323.619 54.755C323.909 54.255 324.054 53.69 324.054 53.06C324.054 52.43 323.909 51.865 323.619 51.365C323.329 50.855 322.934 50.455 322.434 50.165C321.944 49.865 321.399 49.715 320.799 49.715H316.524V56.405ZM338.307 68L342.372 47H344.892L350.277 61.145L355.632 47H358.152L362.232 68H359.052L356.337 53.945L351.312 67.205H349.212L344.202 53.945L341.487 68H338.307ZM380.088 47H383.733L391.368 68H388.068L386.613 64.01H377.208L375.768 68H372.453L380.088 47ZM378.363 60.89H385.458L381.903 51.14L378.363 60.89ZM401.588 68V47H404.963L414.608 62.36V47H417.728V68H414.353L404.708 52.64V68H401.588ZM441.411 47H445.086L437.916 58.52V68H434.796V58.52L427.641 47H431.316L436.356 55.115L441.411 47Z" fill="#2B2B2B"/>
<rect width="162" height="15" fill="black"/>
<rect x="179" width="162" height="15" fill="#FF3C1A"/>
<rect x="358" width="162" height="15" fill="#FFEB12"/>
</svg>
