<?xml version="1.0" encoding="UTF-8" standalone="no"?>
<!DOCTYPE svg PUBLIC "-//W3C//DTD SVG 1.1//EN" "http://www.w3.org/Graphics/SVG/1.1/DTD/svg11.dtd">
<svg width="100%" height="100%" viewBox="0 0 75 64" version="1.1" xmlns="http://www.w3.org/2000/svg" xmlns:xlink="http://www.w3.org/1999/xlink" xml:space="preserve" xmlns:serif="http://www.serif.com/" style="fill-rule:evenodd;clip-rule:evenodd;stroke-linejoin:round;stroke-miterlimit:2;">
    <g transform="matrix(1,0,0,1,-1787.5,-1069.15)">
        <g transform="matrix(1,0,0,1,0,-1.55694)">
            <g transform="matrix(0.124736,0,0,0.124736,1754.57,1032.64)">
                <path d="M858.005,460.624C858.005,374.915 788.273,305.174 702.582,305.174C639.689,305.174 585.444,342.721 560.988,396.551C536.556,342.721 482.3,305.174 419.436,305.174C333.709,305.174 263.995,374.915 263.995,460.624C263.995,478.704 267.1,496.043 272.813,512.205C279.313,530.601 289.166,547.404 301.657,561.896C306.983,568.096 312.769,573.855 319.015,579.144L556.092,814.639C557.551,816.1 559.451,816.827 561.37,816.827C563.307,816.827 565.219,816.101 566.69,814.639L812.573,570.347L812.555,570.314C828.49,554.342 840.988,534.958 848.813,513.322C854.755,496.863 858.005,479.113 858.005,460.624Z" style="fill:rgb(48,70,46);fill-rule:nonzero;"/>
            </g>
            <g transform="matrix(1,0,0,1,26.1656,4.45496)">
                <g transform="matrix(0.879913,0,0,1,214.327,2.27539)">
                    <path d="M1799.14,1106.31C1799.14,1106.31 1795.05,1104.12 1793.38,1107.52C1792.56,1109.17 1790.45,1109.12 1789.78,1108.67C1788.94,1108.11 1787.23,1106.13 1787.04,1103.03C1786.85,1099.93 1788.32,1098.68 1789.22,1097.84C1790.11,1097 1792.75,1095.01 1797.05,1094.9C1801.35,1094.79 1804.51,1095.55 1807.1,1097.53C1809.7,1099.51 1810.3,1102.36 1809.39,1104.52C1808.48,1106.68 1807.13,1111.49 1803.42,1111.38C1799.74,1111.28 1800.52,1106.83 1799.14,1106.31Z" style="fill:rgb(242,255,226);"/>
                </g>
                <g transform="matrix(0.663397,-0.570175,0.784042,0.912231,-256.423,1115.42)">
                    <path d="M1787.7,1096.91C1786.72,1097.28 1785.79,1096.74 1784.89,1095.88C1783.99,1095.02 1784.07,1093.37 1784.86,1092.9C1785.65,1092.42 1787.48,1091.55 1788.41,1091.96C1789.35,1092.37 1789.57,1092.77 1789.55,1093.98C1789.54,1095.18 1788.69,1096.55 1787.7,1096.91Z" style="fill:rgb(242,255,226);"/>
                </g>
                <g transform="matrix(-0.716217,-0.886092,-0.935487,0.756142,4112.75,1852.9)">
                    <path d="M1787.7,1096.91C1786.72,1097.28 1785.79,1096.74 1784.89,1095.88C1783.99,1095.02 1784.07,1093.37 1784.86,1092.9C1785.65,1092.42 1787.48,1091.55 1788.41,1091.96C1789.35,1092.37 1789.57,1092.77 1789.55,1093.98C1789.54,1095.18 1788.69,1096.55 1787.7,1096.91Z" style="fill:rgb(242,255,226);"/>
                </g>
                <g transform="matrix(0.979038,-0.229494,0.321499,1.37154,-307.638,-0.190075)">
                    <path d="M1787.7,1096.91C1786.72,1097.28 1785.79,1096.74 1784.89,1095.88C1783.99,1095.02 1784.07,1093.37 1784.86,1092.9C1785.65,1092.42 1787.48,1091.55 1788.41,1091.96C1789.35,1092.37 1789.57,1092.77 1789.55,1093.98C1789.54,1095.18 1788.69,1096.55 1787.7,1096.91Z" style="fill:rgb(242,255,226);"/>
                </g>
                <g transform="matrix(1.27562,0.415754,-0.477894,1.46627,45.6629,-1256.81)">
                    <path d="M1787.7,1096.91C1786.72,1097.28 1785.79,1096.74 1784.89,1095.88C1783.99,1095.02 1784.07,1093.37 1784.86,1092.9C1785.65,1092.42 1787.48,1091.55 1788.41,1091.96C1789.35,1092.37 1789.57,1092.77 1789.55,1093.98C1789.54,1095.18 1788.69,1096.55 1787.7,1096.91Z" style="fill:rgb(242,255,226);"/>
                </g>
            </g>
        </g>
    </g>
</svg>
