<?xml version="1.0" encoding="UTF-8" standalone="no"?>
<!DOCTYPE svg PUBLIC "-//W3C//DTD SVG 1.1//EN" "http://www.w3.org/Graphics/SVG/1.1/DTD/svg11.dtd">
<svg width="100%" height="100%" viewBox="0 0 80 58" version="1.1" xmlns="http://www.w3.org/2000/svg" xmlns:xlink="http://www.w3.org/1999/xlink" xml:space="preserve" xmlns:serif="http://www.serif.com/" style="fill-rule:evenodd;clip-rule:evenodd;stroke-linejoin:round;stroke-miterlimit:2;">
    <g transform="matrix(0.203645,-0.120165,0.120165,0.203645,-41.9262,29.2894)">
        <path d="M135.866,174.895C121.073,181.252 110.725,189.63 105.415,194.573C102.994,196.826 99.25,196.828 96.827,194.577C94.278,192.21 94.123,188.229 96.485,185.675C113.171,167.636 145.866,133.032 225.997,129.175C322.562,124.528 344.189,196.271 430.189,179.271C430.189,179.271 388.211,182.61 307.733,126.408C244.033,81.923 170.539,116.841 169.199,117.261C169.799,116.351 208.789,58.271 285.189,58.271C370.189,58.271 407.189,167.271 505.189,154.271C505.189,154.271 443.189,265.271 335.189,265.271C263.901,265.271 223.441,216.373 187.637,183.625C173.614,170.797 153.327,167.39 135.866,174.895Z" style="fill-rule:nonzero;"/>
    </g>
</svg>
